<svg xmlns="http://www.w3.org/2000/svg" version="1.1" xmlns:xlink="http://www.w3.org/1999/xlink" xmlns:svgjs="http://svgjs.dev/svgjs" width="1000" height="623" viewBox="0 0 1000 623"><g transform="matrix(1,0,0,1,-0.6060606060606233,0.2522267206477409)"><svg viewBox="0 0 396 247" data-background-color="#ffffff" preserveAspectRatio="xMidYMid meet" height="623" width="1000" xmlns="http://www.w3.org/2000/svg" xmlns:xlink="http://www.w3.org/1999/xlink"><g id="tight-bounds" transform="matrix(1,0,0,1,0.2400000000000091,-0.09999999999999432)"><svg viewBox="0 0 395.52 247.2" height="247.2" width="395.52"><g><svg></svg></g><g><svg viewBox="0 0 395.52 247.2" height="247.2" width="395.52"><g transform="matrix(1,0,0,1,75.54432,80.91250318169072)"><svg viewBox="0 0 244.43135999999998 85.37499363661854" height="85.37499363661854" width="244.43135999999998"><g><svg viewBox="0 0 398.9391224021829 139.34147008176262" height="85.37499363661854" width="244.43135999999998"><g transform="matrix(1,0,0,1,0,19.257757442559097)"><svg viewBox="0 0 244.43135999999998 100.82595519664443" height="100.82595519664443" width="244.43135999999998"><g id="textblocktransform"><svg viewBox="0 0 244.43135999999998 100.82595519664443" height="100.82595519664443" width="244.43135999999998" id="textblock"><g><svg viewBox="0 0 244.43135999999998 76.52183767491925" height="76.52183767491925" width="244.43135999999998"><g transform="matrix(1,0,0,1,0,0)"><svg width="244.43135999999998" viewBox="-2.55 -40.23 140.34 44.629999999999995" height="76.52183767491925" data-palette-color="#00296b"><path d="M23.88-32.52L22.7-30.23Q22.48-29.85 22.23-29.66 21.98-29.48 21.58-29.48L21.58-29.48Q21.15-29.48 20.59-29.9 20.03-30.33 19.16-30.84 18.3-31.35 17.09-31.78 15.88-32.2 14.15-32.2L14.15-32.2Q12.53-32.2 11.28-31.76 10.03-31.33 9.19-30.58 8.35-29.83 7.93-28.81 7.5-27.8 7.5-26.63L7.5-26.63Q7.5-25.13 8.24-24.14 8.97-23.15 10.19-22.45 11.4-21.75 12.94-21.24 14.48-20.73 16.09-20.18 17.7-19.63 19.24-18.94 20.78-18.25 21.99-17.2 23.2-16.15 23.94-14.63 24.68-13.1 24.68-10.88L24.68-10.88Q24.68-8.53 23.88-6.46 23.08-4.4 21.54-2.88 20-1.35 17.76-0.48 15.53 0.4 12.68 0.4L12.68 0.4Q9.2 0.4 6.34-0.86 3.48-2.13 1.45-4.28L1.45-4.28 2.85-6.58Q3.05-6.85 3.34-7.04 3.63-7.23 3.98-7.23L3.98-7.23Q4.5-7.23 5.18-6.66 5.85-6.1 6.86-5.43 7.88-4.75 9.31-4.19 10.75-3.63 12.83-3.63L12.83-3.63Q14.55-3.63 15.9-4.1 17.25-4.58 18.19-5.44 19.13-6.3 19.63-7.5 20.13-8.7 20.13-10.18L20.13-10.18Q20.13-11.8 19.39-12.84 18.65-13.88 17.45-14.58 16.25-15.28 14.71-15.76 13.18-16.25 11.56-16.76 9.95-17.28 8.41-17.95 6.88-18.63 5.68-19.7 4.48-20.78 3.74-22.39 3-24 3-26.38L3-26.38Q3-28.28 3.74-30.05 4.48-31.83 5.88-33.2 7.28-34.58 9.34-35.4 11.4-36.23 14.08-36.23L14.08-36.23Q17.07-36.23 19.55-35.27 22.03-34.33 23.88-32.52L23.88-32.52ZM37.82 0.4L37.82 0.4Q34.82 0.4 33.21-1.28 31.6-2.95 31.6-6.1L31.6-6.1 31.6-21.6 28.55-21.6Q28.15-21.6 27.87-21.84 27.6-22.08 27.6-22.58L27.6-22.58 27.6-24.35 31.75-24.88 32.77-32.7Q32.82-33.08 33.1-33.31 33.37-33.55 33.8-33.55L33.8-33.55 36.05-33.55 36.05-24.83 43.3-24.83 43.3-21.6 36.05-21.6 36.05-6.4Q36.05-4.8 36.82-4.03 37.6-3.25 38.82-3.25L38.82-3.25Q39.52-3.25 40.03-3.44 40.55-3.63 40.92-3.85 41.3-4.08 41.56-4.26 41.82-4.45 42.02-4.45L42.02-4.45Q42.37-4.45 42.65-4.03L42.65-4.03 43.95-1.9Q42.8-0.83 41.17-0.21 39.55 0.4 37.82 0.4ZM67.4-16.2L67.4 0 65.42 0Q64.77 0 64.37-0.2 63.97-0.4 63.84-1.05L63.84-1.05 63.34-3.4Q62.34-2.5 61.4-1.79 60.45-1.07 59.4-0.59 58.35-0.1 57.16 0.15 55.97 0.4 54.52 0.4L54.52 0.4Q53.05 0.4 51.76-0.01 50.47-0.43 49.52-1.25 48.57-2.08 48.01-3.34 47.45-4.6 47.45-6.33L47.45-6.33Q47.45-7.83 48.27-9.21 49.1-10.6 50.93-11.68 52.77-12.75 55.75-13.44 58.72-14.13 63.02-14.23L63.02-14.23 63.02-16.2Q63.02-19.15 61.76-20.66 60.5-22.18 58.02-22.18L58.02-22.18Q56.4-22.18 55.28-21.76 54.17-21.35 53.36-20.84 52.55-20.33 51.96-19.91 51.37-19.5 50.8-19.5L50.8-19.5Q50.35-19.5 50.01-19.74 49.67-19.98 49.47-20.33L49.47-20.33 48.67-21.75Q50.77-23.78 53.2-24.78 55.62-25.78 58.57-25.78L58.57-25.78Q60.7-25.78 62.34-25.08 64-24.38 65.12-23.13 66.25-21.88 66.82-20.1 67.4-18.32 67.4-16.2L67.4-16.2ZM55.85-2.73L55.85-2.73Q57.02-2.73 58-2.96 58.97-3.2 59.83-3.64 60.7-4.08 61.48-4.7 62.27-5.33 63.02-6.13L63.02-6.13 63.02-11.4Q59.95-11.3 57.8-10.91 55.65-10.53 54.3-9.9 52.95-9.28 52.33-8.43 51.72-7.58 51.72-6.53L51.72-6.53Q51.72-5.53 52.05-4.8 52.37-4.08 52.92-3.61 53.47-3.15 54.22-2.94 54.97-2.73 55.85-2.73ZM78.59 0L74.14 0 74.14-25.33 76.79-25.33Q77.74-25.33 77.99-24.4L77.99-24.4 78.32-21.8Q79.72-23.53 81.46-24.63 83.19-25.73 85.49-25.73L85.49-25.73Q88.07-25.73 89.66-24.3 91.24-22.88 91.94-20.45L91.94-20.45Q92.47-21.83 93.33-22.83 94.19-23.83 95.27-24.48 96.34-25.13 97.56-25.43 98.77-25.73 100.02-25.73L100.02-25.73Q102.02-25.73 103.58-25.09 105.14-24.45 106.23-23.23 107.32-22 107.89-20.21 108.47-18.43 108.47-16.13L108.47-16.13 108.47 0 104.02 0 104.02-16.13Q104.02-19.1 102.72-20.64 101.42-22.18 98.94-22.18L98.94-22.18Q97.84-22.18 96.86-21.79 95.87-21.4 95.12-20.65 94.37-19.9 93.93-18.76 93.49-17.63 93.49-16.13L93.49-16.13 93.49 0 89.04 0 89.04-16.13Q89.04-19.18 87.82-20.68 86.59-22.18 84.24-22.18L84.24-22.18Q82.59-22.18 81.18-21.29 79.77-20.4 78.59-18.88L78.59-18.88 78.59 0ZM133.79-16.2L133.79 0 131.82 0Q131.17 0 130.77-0.2 130.37-0.4 130.24-1.05L130.24-1.05 129.74-3.4Q128.74-2.5 127.79-1.79 126.84-1.07 125.79-0.59 124.74-0.1 123.55 0.15 122.37 0.4 120.92 0.4L120.92 0.4Q119.44 0.4 118.15-0.01 116.87-0.43 115.92-1.25 114.97-2.08 114.4-3.34 113.84-4.6 113.84-6.33L113.84-6.33Q113.84-7.83 114.67-9.21 115.49-10.6 117.33-11.68 119.17-12.75 122.14-13.44 125.12-14.13 129.42-14.23L129.42-14.23 129.42-16.2Q129.42-19.15 128.15-20.66 126.89-22.18 124.42-22.18L124.42-22.18Q122.79-22.18 121.68-21.76 120.57-21.35 119.75-20.84 118.94-20.33 118.35-19.91 117.77-19.5 117.19-19.5L117.19-19.5Q116.74-19.5 116.4-19.74 116.07-19.98 115.87-20.33L115.87-20.33 115.07-21.75Q117.17-23.78 119.59-24.78 122.02-25.78 124.97-25.78L124.97-25.78Q127.09-25.78 128.74-25.08 130.39-24.38 131.52-23.13 132.64-21.88 133.22-20.1 133.79-18.32 133.79-16.2L133.79-16.2ZM122.24-2.73L122.24-2.73Q123.42-2.73 124.39-2.96 125.37-3.2 126.23-3.64 127.09-4.08 127.88-4.7 128.67-5.33 129.42-6.13L129.42-6.13 129.42-11.4Q126.34-11.3 124.19-10.91 122.04-10.53 120.69-9.9 119.34-9.28 118.73-8.43 118.12-7.58 118.12-6.53L118.12-6.53Q118.12-5.53 118.44-4.8 118.77-4.08 119.32-3.61 119.87-3.15 120.62-2.94 121.37-2.73 122.24-2.73Z" opacity="1" transform="matrix(1,0,0,1,0,0)" fill="#00296b" class="wordmark-text-0" data-fill-palette-color="primary" id="text-0"></path></svg></g></svg></g><g transform="matrix(1,0,0,1,48.849389759999994,91.6881299953395)"><svg viewBox="0 0 146.73258048 9.137825201304947" height="9.137825201304947" width="146.73258048"><g transform="matrix(1,0,0,1,0,0)"><svg width="146.73258048" viewBox="0.34999999999999964 -41.15 727.64 46.05" height="9.137825201304947" data-palette-color="#ff1b1c"><g class="slogan-text-1" data-fill-palette-color="secondary" id="text-1"><path d="M11.6-23.9L11.05-34.35 15.75-34.35 15.2-23.9 11.6-23.9ZM4.9-23.85L4.35-34.3 9.1-34.3 8.55-23.85 4.9-23.85ZM24.95 0.05L24.95-34.3 29.05-34.3 29.05-19.75 45.8-19.75 45.8-34.3 49.9-34.3 49.9 0.05 45.8 0.05 45.8-15.85 29.05-15.85 29.05 0.05 24.95 0.05ZM69.05 0.5Q65.5 0.5 62.67-1.2 59.85-2.9 58.25-5.88 56.65-8.85 56.65-12.6L56.65-12.6Q56.65-16.35 58.27-19.38 59.9-22.4 62.72-24.13 65.55-25.85 69.09-25.85L69.09-25.85Q72.65-25.85 75.47-24.15 78.3-22.45 79.9-19.43 81.5-16.4 81.5-12.65L81.5-12.65Q81.5-8.9 79.9-5.9 78.3-2.9 75.45-1.2 72.59 0.5 69.05 0.5L69.05 0.5ZM69.09-3.2Q72.84-3.2 75.12-5.8 77.4-8.4 77.4-12.65L77.4-12.65Q77.4-16.95 75.12-19.55 72.84-22.15 69.09-22.15L69.09-22.15Q66.65-22.15 64.75-20.95 62.85-19.75 61.8-17.6 60.75-15.45 60.75-12.65L60.75-12.65Q60.75-8.4 63.05-5.8 65.34-3.2 69.09-3.2L69.09-3.2ZM87.54-17.7Q87.54-19.45 87.07-20.85 86.59-22.25 85.29-23.4L85.29-23.4 87.84-25.9Q89.84-24.75 90.79-22.15L90.79-22.15Q92.19-23.9 94.09-24.8 95.99-25.7 98.04-25.7L98.04-25.7Q100.24-25.7 102.07-24.73 103.89-23.75 104.94-21.9L104.94-21.9Q106.39-23.75 108.42-24.73 110.44-25.7 112.54-25.7L112.54-25.7Q116.04-25.7 118.32-23.45 120.59-21.2 120.54-17.4L120.54-17.4 120.34 0.05 116.49 0.05 116.54-16.85Q116.54-19.45 115.52-20.73 114.49-22 112.29-22L112.29-22Q110.19-22 108.69-20.93 107.19-19.85 106.04-17.65L106.04-17.65 106.04 0.05 102.04 0.05 102.04-16.85Q102.04-19.35 100.99-20.68 99.94-22 97.89-22L97.89-22Q95.84-22 94.09-20.8 92.34-19.6 91.54-17.8L91.54-17.8 91.54 0.05 87.54 0.05 87.54-17.7ZM130.09-11.05Q130.24-7.95 131.77-5.55 133.29-3.15 137.39-3.15L137.39-3.15Q139.54-3.15 141.39-3.83 143.24-4.5 145.29-5.9L145.29-5.9 147.19-2.8Q145.34-1.3 142.64-0.38 139.94 0.55 137.19 0.55L137.19 0.55Q133.69 0.55 131.14-1.07 128.59-2.7 127.24-5.53 125.89-8.35 125.89-11.95L125.89-11.95Q125.89-15.55 127.22-18.75 128.54-21.95 131.12-23.9 133.69-25.85 137.24-25.85L137.24-25.85Q140.14-25.85 142.54-24.45 144.94-23.05 146.34-20.58 147.74-18.1 147.74-15.1L147.74-15.1Q147.74-13.85 147.54-11.05L147.54-11.05 130.09-11.05ZM130.29-14.75L143.69-14.75 143.69-15.25Q143.69-17.2 142.82-18.78 141.94-20.35 140.47-21.25 138.99-22.15 137.19-22.15L137.19-22.15Q134.64-22.15 132.77-20.25 130.89-18.35 130.29-14.75L130.29-14.75ZM153.14-20.45Q152.89-21.3 152.06-22.13 151.24-22.95 150.59-23.3L150.59-23.3 152.59-26.55Q155.84-24.6 157.19-20.55L157.19-20.55 161.69-7 167.69-25.45 171.34-25.45 177.39-7 183.39-25.45 187.54-25.45 179.24 0 175.54 0 169.54-18.45 163.49 0 159.79 0 153.14-20.45ZM202.79 0.5Q199.24 0.5 196.41-1.2 193.59-2.9 191.99-5.88 190.39-8.85 190.39-12.6L190.39-12.6Q190.39-16.35 192.01-19.38 193.64-22.4 196.46-24.13 199.29-25.85 202.84-25.85L202.84-25.85Q206.39-25.85 209.21-24.15 212.04-22.45 213.64-19.43 215.24-16.4 215.24-12.65L215.24-12.65Q215.24-8.9 213.64-5.9 212.04-2.9 209.19-1.2 206.34 0.5 202.79 0.5L202.79 0.5ZM202.84-3.2Q206.59-3.2 208.86-5.8 211.14-8.4 211.14-12.65L211.14-12.65Q211.14-16.95 208.86-19.55 206.59-22.15 202.84-22.15L202.84-22.15Q200.39-22.15 198.49-20.95 196.59-19.75 195.54-17.6 194.49-15.45 194.49-12.65L194.49-12.65Q194.49-8.4 196.79-5.8 199.09-3.2 202.84-3.2L202.84-3.2ZM231.58-25.85Q233.03-25.85 235.03-25.35L235.03-25.35 234.93-21.4Q232.93-21.95 231.68-21.95L231.68-21.95Q229.33-21.95 228.03-20.85L228.03-20.85Q226.53-19.65 225.43-17.65L225.43-17.65 225.43 0.05 221.33 0.05 221.33-17.65Q221.33-21.55 219.23-23.35L219.23-23.35 221.98-25.9Q222.73-25.45 223.51-24.55 224.28-23.65 224.78-22.5L224.78-22.5Q225.88-23.9 227.03-24.65L227.03-24.65Q228.93-25.85 231.58-25.85L231.58-25.85ZM251.53-13.4L261.18 0.05 256.53 0.05 248.53-11.1Q247.68-12.1 245.53-12.1L245.53-12.1 243.93-12.1 243.93 0.05 239.83 0.05 239.83-36.35 243.93-36.35 243.93-15.75 245.13-15.75Q247.78-15.75 248.93-16.35L248.93-16.35Q250.53-17.15 251.83-19.07 253.13-21 253.88-22.95 254.63-24.9 254.63-25.55L254.63-25.55 258.28-25.55Q258.23-23.55 257.16-21.03 256.08-18.5 254.53-16.38 252.98-14.25 251.53-13.4L251.53-13.4Z" fill="#00296b" data-fill-palette-color="primary"></path><path d="M280.53 0.05L280.53-34.3 302.93-34.3 302.93-30.4 284.63-30.4 284.63-19.65 298.53-19.65 298.53-15.75 284.63-15.75 284.63 0.05 280.53 0.05ZM318.93 0.5Q315.38 0.5 312.55-1.2 309.73-2.9 308.13-5.88 306.53-8.85 306.53-12.6L306.53-12.6Q306.53-16.35 308.15-19.38 309.78-22.4 312.6-24.13 315.43-25.85 318.98-25.85L318.98-25.85Q322.53-25.85 325.35-24.15 328.18-22.45 329.78-19.43 331.38-16.4 331.38-12.65L331.38-12.65Q331.38-8.9 329.78-5.9 328.18-2.9 325.33-1.2 322.48 0.5 318.93 0.5L318.93 0.5ZM318.98-3.2Q322.73-3.2 325-5.8 327.28-8.4 327.28-12.65L327.28-12.65Q327.28-16.95 325-19.55 322.73-22.15 318.98-22.15L318.98-22.15Q316.53-22.15 314.63-20.95 312.73-19.75 311.68-17.6 310.63-15.45 310.63-12.65L310.63-12.65Q310.63-8.4 312.93-5.8 315.23-3.2 318.98-3.2L318.98-3.2ZM347.72-25.85Q349.17-25.85 351.17-25.35L351.17-25.35 351.07-21.4Q349.07-21.95 347.82-21.95L347.82-21.95Q345.47-21.95 344.17-20.85L344.17-20.85Q342.67-19.65 341.57-17.65L341.57-17.65 341.57 0.05 337.47 0.05 337.47-17.65Q337.47-21.55 335.37-23.35L335.37-23.35 338.12-25.9Q338.87-25.45 339.65-24.55 340.42-23.65 340.92-22.5L340.92-22.5Q342.02-23.9 343.17-24.65L343.17-24.65Q345.07-25.85 347.72-25.85L347.72-25.85Z" fill="#ff1b1c" data-fill-palette-color="secondary"></path><path d="M370.52 0.05L370.52-34.3 374.62-34.3 374.62-19.75 391.37-19.75 391.37-34.3 395.47-34.3 395.47 0.05 391.37 0.05 391.37-15.85 374.62-15.85 374.62 0.05 370.52 0.05ZM414.62 0.5Q411.07 0.5 408.24-1.2 405.42-2.9 403.82-5.88 402.22-8.85 402.22-12.6L402.22-12.6Q402.22-16.35 403.84-19.38 405.47-22.4 408.29-24.13 411.12-25.85 414.67-25.85L414.67-25.85Q418.22-25.85 421.04-24.15 423.87-22.45 425.47-19.43 427.07-16.4 427.07-12.65L427.07-12.65Q427.07-8.9 425.47-5.9 423.87-2.9 421.01-1.2 418.17 0.5 414.62 0.5L414.62 0.5ZM414.67-3.2Q418.42-3.2 420.69-5.8 422.97-8.4 422.97-12.65L422.97-12.65Q422.97-16.95 420.69-19.55 418.42-22.15 414.67-22.15L414.67-22.15Q412.22-22.15 410.32-20.95 408.42-19.75 407.37-17.6 406.32-15.45 406.32-12.65L406.32-12.65Q406.32-8.4 408.62-5.8 410.92-3.2 414.67-3.2L414.67-3.2ZM433.11-17.7Q433.11-19.45 432.64-20.85 432.16-22.25 430.86-23.4L430.86-23.4 433.41-25.9Q435.41-24.75 436.36-22.15L436.36-22.15Q437.76-23.9 439.66-24.8 441.56-25.7 443.61-25.7L443.61-25.7Q445.81-25.7 447.64-24.73 449.46-23.75 450.51-21.9L450.51-21.9Q451.96-23.75 453.99-24.73 456.01-25.7 458.11-25.7L458.11-25.7Q461.61-25.7 463.89-23.45 466.16-21.2 466.11-17.4L466.11-17.4 465.91 0.05 462.06 0.05 462.11-16.85Q462.11-19.45 461.09-20.73 460.06-22 457.86-22L457.86-22Q455.76-22 454.26-20.93 452.76-19.85 451.61-17.65L451.61-17.65 451.61 0.05 447.61 0.05 447.61-16.85Q447.61-19.35 446.56-20.68 445.51-22 443.46-22L443.46-22Q441.41-22 439.66-20.8 437.91-19.6 437.11-17.8L437.11-17.8 437.11 0.05 433.11 0.05 433.11-17.7ZM475.66-11.05Q475.81-7.95 477.34-5.55 478.86-3.15 482.96-3.15L482.96-3.15Q485.11-3.15 486.96-3.83 488.81-4.5 490.86-5.9L490.86-5.9 492.76-2.8Q490.91-1.3 488.21-0.38 485.51 0.55 482.76 0.55L482.76 0.55Q479.26 0.55 476.71-1.07 474.16-2.7 472.81-5.53 471.46-8.35 471.46-11.95L471.46-11.95Q471.46-15.55 472.79-18.75 474.11-21.95 476.69-23.9 479.26-25.85 482.81-25.85L482.81-25.85Q485.71-25.85 488.11-24.45 490.51-23.05 491.91-20.58 493.31-18.1 493.31-15.1L493.31-15.1Q493.31-13.85 493.11-11.05L493.11-11.05 475.66-11.05ZM475.86-14.75L489.26-14.75 489.26-15.25Q489.26-17.2 488.39-18.78 487.51-20.35 486.04-21.25 484.56-22.15 482.76-22.15L482.76-22.15Q480.21-22.15 478.34-20.25 476.46-18.35 475.86-14.75L475.86-14.75Z" fill="#ffd500" data-fill-palette-color="accent"></path><path d="M527.41 0.85Q522.61 0.85 518.73-1.53 514.86-3.9 512.66-7.95 510.46-12 510.46-16.85L510.46-16.85Q510.46-21.8 512.78-26.05 515.11-30.3 519.03-32.83 522.96-35.35 527.61-35.35L527.61-35.35Q532.16-35.35 535.91-33.33 539.66-31.3 539.56-26L539.56-26 535.61-26Q535.76-29.15 533.13-30.35 530.51-31.55 527.36-31.55L527.36-31.55Q523.86-31.55 520.91-29.48 517.96-27.4 516.21-23.98 514.46-20.55 514.46-16.7L514.46-16.7Q514.46-13 516.13-9.85 517.81-6.7 520.76-4.83 523.71-2.95 527.46-2.95L527.46-2.95Q530.96-2.95 533.93-4.55 536.91-6.15 538.66-9.1L538.66-9.1 542.01-6.8Q539.66-3 535.73-1.07 531.81 0.85 527.41 0.85L527.41 0.85ZM557.91 0.5Q554.36 0.5 551.53-1.2 548.71-2.9 547.11-5.88 545.51-8.85 545.51-12.6L545.51-12.6Q545.51-16.35 547.13-19.38 548.76-22.4 551.58-24.13 554.41-25.85 557.96-25.85L557.96-25.85Q561.51-25.85 564.33-24.15 567.16-22.45 568.76-19.43 570.36-16.4 570.36-12.65L570.36-12.65Q570.36-8.9 568.76-5.9 567.16-2.9 564.31-1.2 561.46 0.5 557.91 0.5L557.91 0.5ZM557.96-3.2Q561.71-3.2 563.98-5.8 566.26-8.4 566.26-12.65L566.26-12.65Q566.26-16.95 563.98-19.55 561.71-22.15 557.96-22.15L557.96-22.15Q555.51-22.15 553.61-20.95 551.71-19.75 550.66-17.6 549.61-15.45 549.61-12.65L549.61-12.65Q549.61-8.4 551.91-5.8 554.21-3.2 557.96-3.2L557.96-3.2ZM576.4-17.7Q576.4-19.45 575.93-20.85 575.45-22.25 574.15-23.4L574.15-23.4 576.7-25.9Q578.7-24.75 579.65-22.15L579.65-22.15Q581.05-23.9 582.95-24.8 584.85-25.7 586.9-25.7L586.9-25.7Q589.1-25.7 590.93-24.73 592.75-23.75 593.8-21.9L593.8-21.9Q595.25-23.75 597.28-24.73 599.3-25.7 601.4-25.7L601.4-25.7Q604.9-25.7 607.18-23.45 609.45-21.2 609.4-17.4L609.4-17.4 609.2 0.05 605.35 0.05 605.4-16.85Q605.4-19.45 604.38-20.73 603.35-22 601.15-22L601.15-22Q599.05-22 597.55-20.93 596.05-19.85 594.9-17.65L594.9-17.65 594.9 0.05 590.9 0.05 590.9-16.85Q590.9-19.35 589.85-20.68 588.8-22 586.75-22L586.75-22Q584.7-22 582.95-20.8 581.2-19.6 580.4-17.8L580.4-17.8 580.4 0.05 576.4 0.05 576.4-17.7ZM625.5-33.45Q622.85-33.45 622.03-31.13 621.2-28.8 621.2-25L621.2-25 628.3-25 628.3-21.3 621.2-21.3 621.2 0.05 617.1 0.05 617.1-21.3 614.55-21.3 614.55-25 617.1-25Q617.1-37.15 625.4-37.15L625.4-37.15Q626.25-37.15 627.23-36.98 628.2-36.8 628.85-36.55L628.85-36.55Q629.55-36.25 630.43-35.6 631.3-34.95 631.7-34.35L631.7-34.35 628.65-31.85Q627.8-33.45 625.5-33.45L625.5-33.45ZM644.4 0.5Q640.85 0.5 638.02-1.2 635.2-2.9 633.6-5.88 632-8.85 632-12.6L632-12.6Q632-16.35 633.62-19.38 635.25-22.4 638.07-24.13 640.9-25.85 644.45-25.85L644.45-25.85Q648-25.85 650.82-24.15 653.65-22.45 655.25-19.43 656.85-16.4 656.85-12.65L656.85-12.65Q656.85-8.9 655.25-5.9 653.65-2.9 650.8-1.2 647.95 0.5 644.4 0.5L644.4 0.5ZM644.45-3.2Q648.2-3.2 650.47-5.8 652.75-8.4 652.75-12.65L652.75-12.65Q652.75-16.95 650.47-19.55 648.2-22.15 644.45-22.15L644.45-22.15Q642-22.15 640.1-20.95 638.2-19.75 637.15-17.6 636.1-15.45 636.1-12.65L636.1-12.65Q636.1-8.4 638.4-5.8 640.7-3.2 644.45-3.2L644.45-3.2ZM673.2-25.85Q674.65-25.85 676.65-25.35L676.65-25.35 676.55-21.4Q674.55-21.95 673.3-21.95L673.3-21.95Q670.95-21.95 669.65-20.85L669.65-20.85Q668.15-19.65 667.05-17.65L667.05-17.65 667.05 0.05 662.95 0.05 662.95-17.65Q662.95-21.55 660.85-23.35L660.85-23.35 663.6-25.9Q664.35-25.45 665.12-24.55 665.9-23.65 666.4-22.5L666.4-22.5Q667.5-23.9 668.65-24.65L668.65-24.65Q670.55-25.85 673.2-25.85L673.2-25.85ZM688.54 0.7Q684.94 0.7 682.94-1.43 680.94-3.55 680.94-7.55L680.94-7.55 680.94-31.45 685.04-31.45 685.04-25.35 692.74-25.35 692.74-21.65 685.04-21.65 685.04-7.55Q685.04-5.1 686.07-4.15 687.09-3.2 688.49-3.2L688.49-3.2Q689.49-3.2 690.12-3.4 690.74-3.6 691.79-4.15L691.79-4.15 693.69-0.8Q691.69 0.7 688.54 0.7L688.54 0.7ZM699.74-6.7L699.29-35.3 703.84-35.3 703.39-6.7 699.74-6.7ZM701.49 0.9Q700.49 0.9 699.69 0.1 698.89-0.7 698.89-1.7L698.89-1.7Q698.89-2.75 699.69-3.55 700.49-4.35 701.49-4.35L701.49-4.35Q702.54-4.35 703.37-3.55 704.19-2.75 704.19-1.7L704.19-1.7Q704.19-0.7 703.37 0.1 702.54 0.9 701.49 0.9L701.49 0.9ZM719.84-23.9L719.29-34.35 723.99-34.35 723.44-23.9 719.84-23.9ZM713.14-23.85L712.59-34.3 717.34-34.3 716.79-23.85 713.14-23.85Z" fill="#00296b" data-fill-palette-color="primary"></path></g></svg></g></svg></g></svg></g></svg></g><g transform="matrix(1,0,0,1,259.5976523204202,0)"><svg viewBox="0 0 139.34147008176262 139.34147008176262" height="139.34147008176262" width="139.34147008176262"><g data-palette-color="#ffd500"><rect width="38.08666848901512" height="139.34147008176262" fill="#ffd500" stroke="transparent" data-fill-palette-color="accent" x="0" fill-opacity="1"></rect><rect width="38.08666848901512" height="139.34147008176262" fill="#ffd500" stroke="transparent" data-fill-palette-color="accent" x="46.447156693920874" fill-opacity="0.75"></rect><rect width="38.08666848901512" height="139.34147008176262" fill="#ffd500" stroke="transparent" data-fill-palette-color="accent" x="92.89431338784175" fill-opacity="0.5"></rect></g></svg></g></svg></g></svg></g><path d="M173.839 74.913L173.839 12.468 395.52 12.468 395.52 234.732 173.839 234.732 173.839 172.287 177.389 172.287 177.389 231.183 391.97 231.183 391.97 16.017 177.389 16.017 177.389 74.913Z" fill="#00296b" stroke="transparent" data-fill-palette-color="primary"></path></svg></g><defs></defs></svg><rect width="395.52" height="247.2" fill="none" stroke="none" visibility="hidden"></rect></g></svg></g></svg>